PathFileType	4	(X/Y/Z)	Kaydara																																																																																																																									
DataRate	CameraRate	NumFrames	NumMarkers	Units	OrigDataRate	OrigDataStartFrame	OrigNumFrames																																																																																																																					
30	30	8	41	mm	30	100	132																																																																																																																					
Frame#	Time	SALE_LFHD			SALE_RFHD			SALE_LBHD			SALE_RBHD			SALE_LFTShould			SALE_RFTShould			SALE_LRRShould			SALE_RRRShould			SALE_T10			SALE_STRN			SALE_TRUN			SALE_LSHO			SALE_LUPA			SALE_LELB			SALE_LFRM			SALE_LWRA			SALE_LWRB			SALE_LFIN			SALE_RSHO			SALE_RUPA			SALE_RELB			SALE_RFRM			SALE_RWRB			SALE_RFIN			SALE_LFWT			SALE_RFWT			SALE_LBWT			SALE_RBWT			SALE_LTHI			SALE_LKNE			SALE_RWRA			SALE_LSHN			SALE_LANK			SALE_LHEE			SALE_LTOE			SALE_RTHI			SALE_RKNE			SALE_RSHN			SALE_RANK			SALE_RHEE			SALE_RTOE		
		X1	Y1	Z1	X2	Y2	Z2	X3	Y3	Z3	X4	Y4	Z4	X5	Y5	Z5	X6	Y6	Z6	X7	Y7	Z7	X8	Y8	Z8	X9	Y9	Z9	X10	Y10	Z10	X11	Y11	Z11	X12	Y12	Z12	X13	Y13	Z13	X14	Y14	Z14	X15	Y15	Z15	X16	Y16	Z16	X17	Y17	Z17	X18	Y18	Z18	X19	Y19	Z19	X20	Y20	Z20	X21	Y21	Z21	X22	Y22	Z22	X23	Y23	Z23	X24	Y24	Z24	X25	Y25	Z25	X26	Y26	Z26	X27	Y27	Z27	X28	Y28	Z28	X29	Y29	Z29	X30	Y30	Z30	X31	Y31	Z31	X32	Y32	Z32	X33	Y33	Z33	X34	Y34	Z34	X35	Y35	Z35	X36	Y36	Z36	X37	Y37	Z37	X38	Y38	Z38	X39	Y39	Z39	X40	Y40	Z40	X41	Y41	Z41
																																																																																																																												
100	3.3	211.02226	1638.974	982.00371	80.62159	1628.67905	983.47855	210.24689	1587.95349	859.02939	83.92829	1578.65692	866.77383	229.68136	1362.30194	993.04604	88.17214	1359.9028	1001.51993	216.13239	1422.41699	881.71104	69.30357	1429.39423	900.66994	135.76886	1278.91136	810.62454	154.17006	1287.2171	1040.89233	150.22647	1196.25854	1071.40404	338.0423	1389.78745	912.64297	377.48768	1179.18823	884.55765	363.02017	1068.96851	866.04576	410.41176	965.20393	885.59753	401.55403	829.6254	983.02002	435.54489	821.15097	915.62614	464.48498	784.69788	955.86349	-20.41237	1394.89685	946.01868	-53.49178	1176.754	858.23891	-84.91688	1074.40567	886.65604	-82.94286	966.96205	853.45436	-111.01546	824.37408	863.83011	-121.78865	769.09332	902.02538	280.57621	954.1153	963.32077	2.66626	942.65366	956.5432	219.76456	1016.32675	799.39148	47.5332	1006.02547	789.55399	280.01715	653.74054	798.43338	262.91271	482.34589	877.3037	-69.52043	818.82095	927.36435	255.00904	279.72015	868.66379	245.67387	98.21674	815.64957	209.35841	48.78144	748.87039	216.85966	55.38528	945.49805	2.0925	679.62753	893.20778	20.60159	572.46113	1070.5835	72.52521	359.93576	1031.33469	33.92388	161.72224	855.45647	23.82158	64.23552	944.31572	89.0659	129.37734	775.03891
101	3.333	199.82029	1632.00714	1048.80699	69.94085	1615.68237	1047.84065	203.35144	1585.49683	924.09782	77.25498	1570.04623	929.56421	228.54094	1355.86853	1052.71919	88.38283	1350.98969	1058.82225	219.68597	1413.53973	940.86906	71.39146	1420.41962	958.30215	141.8225	1270.93391	868.60626	153.49271	1279.81575	1100.26825	149.87194	1188.17528	1128.9698	340.45689	1382.46231	978.62732	378.91827	1169.79424	970.42694	364.22203	1059.33029	955.55977	399.72942	956.83014	1007.3069	358.52833	843.93936	1122.60544	410.05074	822.06482	1071.20575	423.80116	794.70398	1125.00946	-19.91085	1383.97781	1001.36528	-44.79146	1173.31955	899.62959	-80.43535	1071.57959	916.89751	-76.52089	966.66992	873.13309	-109.16884	826.53679	866.57936	-125.01258	767.49954	893.28453	282.50223	943.74207	1019.96948	3.99888	934.49936	1017.04849	219.0506	1006.08871	856.06651	45.85315	997.21176	848.37921	277.12271	655.36087	834.8175	266.2961	477.54524	899.10492	-71.80048	809.96941	930.90706	255.13231	276.78505	881.01509	243.82561	98.40579	817.91763	206.11895	51.11869	749.94934	215.70425	54.96542	945.70396	-6.39251	675.05554	966.86584	21.9589	579.76135	1149.17053	73.0869	363.3094	1144.53362	33.06068	126.12752	1027.59949	25.79959	57.94143	1136.82198	88.23212	74.79809	955.57007
102	3.367	190.37197	1619.17603	1114.38911	61.04184	1598.65173	1110.30754	198.44358	1575.01099	989.39278	72.77603	1555.35873	991.37611	227.71149	1339.91852	1114.27521	86.63008	1333.42819	1117.48199	221.87084	1400.85175	1004.30885	72.602	1406.88965	1017.39059	146.00402	1258.83354	926.65596	152.8511	1262.64343	1158.65204	149.20207	1170.9391	1186.72272	342.09084	1368.98087	1046.2101	380.38872	1155.11223	1051.63132	368.57544	1043.58543	1042.78214	387.50267	953.12241	1120.78209	319.48872	871.94839	1246.81328	381.10371	838.99025	1216.91582	379.147	826.42754	1277.88589	-19.90663	1368.52509	1057.22794	-35.58979	1166.49178	938.6219	-77.75804	1062.70096	943.554	-72.31966	962.56577	895.44235	-107.16824	825.34271	876.51489	-126.85929	765.39047	896.74026	282.70578	932.49237	1078.34328	4.75547	920.70259	1080.02884	217.38415	991.94168	913.02765	42.64194	981.91071	908.79837	275.23918	655.97389	879.61449	264.43153	474.40029	929.56764	-75.27415	801.93466	941.32072	252.68982	275.81734	897.28951	239.94555	101.76321	821.97502	199.49732	58.15649	752.08168	213.99261	54.58034	947.42371	-8.41427	659.82925	1039.41765	20.89163	572.16026	1216.42799	67.77164	361.02951	1248.86665	28.00267	101.85518	1202.04323	25.9656	62.90612	1327.10617	82.11778	34.25338	1144.85825
103	3.4	183.56451	1604.51569	1179.06509	54.60023	1581.90018	1171.09459	196.18608	1560.70053	1054.29482	70.78639	1539.13315	1052.36404	225.68844	1319.19006	1176.69945	84.4044	1314.45053	1174.67186	223.97457	1387.43286	1067.7327	73.08633	1392.72079	1075.61523	149.12828	1245.41359	986.34506	150.3087	1241.20682	1215.64072	146.80954	1149.57031	1243.39027	341.99474	1354.62006	1115.10582	381.20258	1141.00426	1126.97548	370.02174	1027.6384	1124.80545	374.88571	957.07779	1220.46204	288.15517	909.36707	1349.8204	353.19069	871.01761	1339.90143	339.48734	875.2845	1401.69556	-20.67133	1353.45047	1111.00952	-31.95783	1158.84506	981.96274	-77.11446	1055.83008	978.4761	-70.7245	959.70284	923.58826	-107.21776	824.38034	892.93381	-128.58057	763.43437	909.03404	281.02787	922.25479	1139.37454	3.74703	907.5898	1148.33725	212.2691	977.68227	974.17511	36.19748	961.91612	972.94266	269.98074	658.46977	930.00229	264.39877	473.60031	965.44777	-78.42992	796.00403	957.08755	252.21676	276.87906	915.37216	237.13078	108.53439	826.07582	194.18451	69.48466	754.7303	212.91626	54.20887	947.99591	-3.30718	638.85578	1096.10886	16.64477	549.5298	1275.61684	60.63232	358.11852	1341.33484	19.62627	98.38633	1360.37323	19.81063	84.29691	1493.15277	70.96189	20.01722	1317.3642
104	3.433	179.30782	1591.78299	1243.49892	50.30492	1569.71771	1231.7968	195.15053	1548.73093	1118.55949	69.7697	1527.95166	1112.77397	220.14631	1304.0535	1238.4626	79.01466	1301.14822	1232.32368	221.38643	1375.88745	1129.48021	70.22834	1379.81705	1132.93419	150.28443	1231.89774	1047.39174	144.33365	1225.48843	1274.54781	140.49287	1134.44832	1303.37402	337.09427	1345.20477	1182.07565	378.88378	1132.15942	1197.14233	369.90685	1019.99268	1197.48276	364.14642	964.93584	1305.68115	265.2343	945.92323	1433.06366	327.92664	903.21861	1436.2178	311.58497	923.33344	1494.00925	-24.1213	1340.38956	1164.76158	-30.77005	1150.25383	1029.75891	-77.39893	1050.05997	1018.34579	-68.82511	956.12877	960.07523	-106.14294	822.98019	920.5265	-130.12531	761.88507	933.28072	279.01903	910.44006	1204.25659	1.60406	893.58192	1218.04726	206.01784	964.16763	1039.59496	28.78195	945.33066	1041.97151	266.42523	653.34511	988.3638	263.07146	466.64162	1013.93829	-83.4319	792.16339	985.6134	251.27962	274.09271	944.95331	240.60421	116.26061	837.45399	200.09119	85.05238	760.49629	213.67811	52.96049	950.93948	1.17012	619.1312	1161.2603	14.54256	527.58564	1340.01282	61.96568	356.7276	1417.78275	16.22659	109.89598	1475.0238	23.59896	101.70634	1609.06982	62.69322	19.82267	1433.25272
105	3.467	176.70757	1583.03345	1306.62094	47.27702	1564.51218	1292.87918	192.99778	1541.86646	1180.94849	67.19796	1524.47174	1173.36853	212.82087	1299.18823	1300.28107	70.04749	1293.61115	1292.27295	214.13151	1367.52655	1188.76122	63.52368	1369.72534	1190.05814	146.64752	1219.85817	1111.21498	136.11387	1222.0343	1337.30942	132.47294	1133.29887	1371.01807	330.21893	1340.5249	1241.41708	375.00427	1129.10828	1261.79771	368.452	1016.61789	1265.62294	355.71873	970.65338	1377.91031	251.37257	969.81567	1501.55914	310.31847	923.45337	1511.76147	297.45115	953.1012	1564.91638	-30.82866	1330.65536	1220.92567	-29.09021	1144.68239	1084.31549	-78.96149	1045.21584	1067.37511	-69.00541	952.76604	1007.6606	-106.19346	820.92293	962.6609	-131.99271	759.80392	973.02895	276.60639	899.63188	1274.27567	-1.49082	885.85129	1288.55469	202.79213	953.99689	1110.21706	25.5279	940.62096	1113.62335	261.8656	649.41948	1053.74985	263.19944	462.58602	1073.26904	-88.80182	788.96912	1028.98834	252.62669	274.98672	982.63565	248.26014	131.72541	856.09833	212.54982	110.77736	773.55331	215.85348	51.40902	957.41867	-9.31711	618.14014	1236.01402	14.71249	531.98071	1413.92868	64.25578	344.12476	1485.84976	20.12063	90.7715	1521.56357	32.30594	73.86533	1653.27454	66.84845	11.66522	1471.84753
106	3.5	173.62858	1583.36121	1367.39807	43.41347	1568.49274	1353.55621	188.41789	1541.19415	1241.51527	62.10188	1527.66022	1234.11705	205.38383	1303.13232	1363.49838	61.72488	1295.48889	1354.29794	205.68945	1367.02393	1249.37927	54.87612	1366.85333	1249.69627	140.75386	1215.6572	1176.71829	128.22597	1226.67625	1402.15347	125.31335	1138.53905	1438.30978	323.14323	1341.47827	1300.3508	369.71729	1130.32555	1318.06625	363.26225	1017.52792	1325.97641	350.9922	972.23259	1439.74335	246.71431	974.27124	1562.70233	304.36792	926.44424	1573.69049	292.72556	957.5708	1626.23962	-39.09576	1326.492	1280.94025	-32.63023	1139.90135	1147.4646	-82.65052	1040.96901	1129.15672	-71.74575	948.83469	1069.30931	-108.11181	818.00186	1022.4646	-134.9043	757.64458	1030.12222	272.35424	895.4187	1346.88171	-2.03876	888.32832	1358.61359	203.80325	952.14249	1181.26808	21.91605	946.12709	1183.64113	254.44164	639.28192	1131.01463	253.33811	450.80482	1157.10876	-92.66409	784.84848	1088.82225	250.37914	275.78714	1037.84462	256.11572	155.98021	889.82239	225.42171	152.48276	804.31625	216.71021	47.93161	967.4305	-14.90173	622.88067	1310.19318	16.26528	526.52214	1478.34244	71.55074	342.64957	1540.03113	25.42864	84.55483	1547.56058	34.49006	39.91872	1677.55157	68.8963	32.06886	1484.43604
107	3.533	168.75601	1590.233	1425.46204	38.65062	1578.42819	1413.45551	181.15839	1545.85022	1300.54367	54.60683	1534.99542	1294.9762	197.58966	1311.79321	1429.33441	55.25393	1301.07391	1419.50699	197.8142	1375.78979	1316.10901	47.30211	1371.95816	1315.46082	136.37071	1223.60672	1242.41463	122.35593	1233.72505	1468.60992	120.77258	1146.25633	1505.51636	315.71959	1351.4238	1367.901	363.30612	1139.13467	1375.354	356.65836	1027.24144	1378.27744	349.54506	971.88232	1488.99429	249.68042	960.25894	1615.50934	308.88285	913.61549	1620.37979	296.6268	937.98134	1676.40579	-45.98423	1330.08026	1346.92566	-41.36695	1139.28024	1217.00447	-87.77884	1040.17822	1201.79909	-76.80212	946.92459	1143.9888	-112.33505	815.11314	1101.63368	-137.38494	754.4989	1110.36499	266.38084	899.79599	1411.49048	-6.51349	906.99684	1420.01343	206.3019	956.42128	1245.03365	26.89781	961.72829	1244.63089	243.83032	618.34518	1221.28578	240.31626	431.8565	1269.36119	-92.86483	782.24365	1167.27303	246.2578	279.30393	1117.66968	261.26623	194.52206	948.58734	237.4218	215.01879	865.76569	218.69589	62.40705	989.63989	-20.93829	640.31067	1368.38013	23.3906	550.1355	1544.90356	74.12898	344.42749	1580.55969	25.31355	89.35653	1558.7796	35.93464	41.60107	1676.69891	67.86449	27.79902	1487.45102
